<svg width="36" height="37" viewBox="0 0 36 37" fill="none" xmlns="http://www.w3.org/2000/svg">
  <path fill-rule="evenodd" clip-rule="evenodd" d="M26.2 19.1c.2.8-.2 1.7-1 2l-1.4.4a11 11 0 0 1-7 0 8 8 0 0 0-2.6-.4h-3a1.5 1.5 0 1 1 0-3h3c1.2 0 2.4.2 3.5.6a8 8 0 0 0 5.1 0l1.5-.5c.8-.3 1.6.1 1.9 1Z" fill="#002B50"/>
  <path fill-rule="evenodd" clip-rule="evenodd" d="M12.6 9.1a3 3 0 0 1 3-3h4.8a3 3 0 0 1 3 3v5l5.8 9.9c1 1.3 1 3 .3 4.1-.7 1.2-2 2-3.6 2H10.1c-1.6 0-2.9-.8-3.6-2a3.6 3.6 0 0 1 .3-4.1l5.8-9.8V9Zm7.8 0h-4.8v5c0 .6-.2 1.2-.5 1.6l-5.8 9.8c0 .2-.1.3-.2.3-.1.3-.1.5 0 .8.2.2.5.5 1 .5H26c.5 0 .9-.3 1-.5.1-.3.1-.5 0-.8 0 0-.2-.1-.2-.3l-5.8-9.8a3 3 0 0 1-.5-1.5V9Z" fill="#002B50"/>
</svg>
